<?xml version="1.0" encoding="UTF-8" standalone="no"?>
<svg
   width="704.7785"
   zoomAndPan="magnify"
   viewBox="0 0 528.37677 50.691742"
   height="67.588989"
   preserveAspectRatio="xMidYMid"
   version="1.0"
   id="svg970"
   xmlns="http://www.w3.org/2000/svg"
   xmlns:svg="http://www.w3.org/2000/svg">
  <metadata
     id="metadata1">
    <ContainsAiGeneratedContent>Yes</ContainsAiGeneratedContent>
  </metadata>
  <defs
     id="defs318">
    <clipPath
       id="de27903bc3">
      <path
         d="m 160,662 h 530 v 51.63672 H 160 Z m 0,0"
         clip-rule="nonzero"
         id="path48" />
    </clipPath>
  </defs>
  <g
     clip-path="url(#de27903bc3)"
     id="g489"
     transform="translate(-160.64065,-662.37866)">
    <path
       fill="#83691b"
       d="m 688.21484,697.60937 c 0,-0.12109 -0.0625,-0.24609 -0.12109,-0.36718 -1.03516,-3.70703 -4.13672,-6.8086 -6.8125,-9.42578 -2.91797,-2.85938 -6.38281,-5.16797 -10.03516,-7.05469 -6.26172,-3.22266 -13.3164,-4.86328 -20.43359,-5.71485 -1.03125,-0.18359 -2.06641,-0.36718 -3.03906,-0.54687 -22.5625,-3.52734 -46.09766,-2.80078 -69.02344,0.60547 0.73047,-0.73047 1.51953,-1.39844 2.43359,-1.94531 2.67578,-1.70313 4.80078,-1.76172 7.84375,-1.58204 0.73047,0.0625 1.46094,-0.48437 1.70313,-1.21484 0.12109,-0.36328 0.12109,-0.54687 0,-0.91406 -0.24219,-0.91016 -1.15625,-1.39844 -2.06641,-1.21485 -4.19922,0.78907 -8.21094,3.52735 -10.88672,7.05469 -1.09375,0.1836 -2.25,0.36328 -3.34765,0.54688 0.79297,-2.3711 0.91406,-4.74219 -0.24219,-6.6875 -0.30469,-0.42578 -0.91016,-0.36719 -1.15625,0.0586 -1.15234,2.00781 -0.85156,4.07422 -1.03125,6.32422 0,0.24609 -0.0625,0.48828 -0.0625,0.79297 -0.91016,0.17969 -1.76172,0.30469 -2.67578,0.48437 0.0625,-1.39843 -0.1211,-2.79687 -0.36328,-4.13281 -0.48828,-2.49609 -1.09375,-3.65234 -2.85938,-5.23047 -0.66797,-0.60937 -1.64062,0.0586 -1.58203,0.91016 0.18359,3.10156 0.97266,6.08203 1.27734,9.18359 -1.03125,0.1836 -2.0664,0.42578 -3.10156,0.60938 -0.17969,-2.19141 -0.91015,-4.37891 -2.30859,-6.38672 -4.80469,-6.9336 -14.59766,-7.78516 -20.25391,-1.51953 -3.22265,3.52734 -4.19531,8.39062 -2.30859,12.83203 0.12109,0.30469 0.30469,0.66797 0.48437,0.97265 -5.35156,1.51954 -10.70312,3.22266 -15.93359,5.04688 -5.35156,1.88672 -10.76172,3.83203 -15.99219,6.08203 3.71094,-4.25781 5.04688,-10.09375 0.54688,-14.89844 -2.61328,-2.73828 -6.8125,-3.95312 -10.15625,-1.82422 -2.73828,1.76172 -4.6836,5.89844 -2.00782,8.45313 1.03516,0.97266 2.79688,0.24219 2.4961,-1.21875 -0.36719,-2.00781 0.42578,-4.07422 2.61328,-4.55859 2.49219,-0.55079 4.86328,1.70312 5.83984,3.82812 2.00391,4.44141 -1.09765,9.48828 -4.68359,12.04297 -6.99609,4.92578 -16.17578,4.31641 -24.38672,2.49219 0.48438,-6.38282 -5.59375,-11.61328 -11.37109,-13.19532 -3.52735,-0.97265 -7.35938,-1.09375 -11.19141,-0.60937 -2.12891,-1.76172 -4.80469,-2.79688 -7.66406,-2.98047 -3.46485,-0.17969 -6.75,0.97266 -9.48438,2.85938 5.10547,-5.77735 11.06641,-10.76563 17.69532,-14.65625 1.33984,-0.78907 2.79687,-1.58204 4.25781,-2.3711 0.54687,0.78906 0.91015,1.76172 1.09375,2.79688 0.30469,2.3125 -1.51953,3.89062 -0.85156,5.96093 0.12109,0.36329 0.54687,0.66797 0.91406,0.66797 h 0.60547 c 0.60937,0 1.27734,-0.30468 1.52343,-0.85156 1.64063,-3.28516 1.27735,-7.05469 -0.67187,-9.91406 5.05078,-2.3086 10.52344,-3.89063 15.875,-3.10156 3.89062,0.55078 8.14844,2.61718 9.91016,6.32812 1.76562,3.58594 0.97265,8.02734 -2.12891,10.57813 -1.82422,1.52343 0.79297,4.13671 2.55469,2.61718 6.20312,-5.29297 3.83203,-14.65625 -2.55469,-18.67187 -7.47656,-4.67969 -16.53906,-2.1875 -23.89844,1.27734 -0.12109,0.0625 -0.24219,0.1211 -0.42578,0.1836 -0.78906,-0.85157 -1.70312,-1.64063 -2.79687,-2.1875 -5.41407,-2.73829 -11.73829,-0.60938 -16.17579,2.97656 -10.27734,8.45312 -16.11718,22.5039 -17.33203,35.45703 -1.21875,-12.95313 -7.05468,-27.00391 -17.33203,-35.45703 -4.3789,-3.58594 -10.76562,-5.77735 -16.17578,-2.97656 -1.09766,0.54687 -2.07031,1.33593 -2.80078,2.1875 -0.12109,-0.0625 -0.24219,-0.1211 -0.42578,-0.1836 -7.41797,-3.46484 -16.41797,-5.95703 -23.89844,-1.27734 -6.38672,4.01562 -8.75781,13.32031 -2.55469,18.67187 1.82422,1.51953 4.37891,-1.09375 2.55469,-2.61718 -3.03906,-2.55079 -3.89062,-6.99219 -2.12891,-10.57813 1.82422,-3.71094 6.01954,-5.71875 9.91407,-6.32812 5.28906,-0.72657 10.82422,0.79296 15.87109,3.10156 -1.94531,2.80078 -2.30859,6.57031 -0.66797,9.91406 0.24219,0.54688 0.97266,0.85156 1.51953,0.85156 h 0.60938 c 0.36328,0 0.78906,-0.36328 0.91015,-0.66797 0.67188,-2.1289 -1.15625,-3.71093 -0.85156,-5.96093 0.1211,-1.03516 0.54688,-2.00782 1.09766,-2.79688 1.45703,0.78906 2.91797,1.58203 4.2539,2.3711 6.62891,3.95312 12.58985,8.9414 17.69922,14.65625 -2.73828,-1.88672 -5.96093,-3.03907 -9.48828,-2.85938 -2.85937,0.125 -5.53515,1.21875 -7.66406,2.98047 -3.89063,-0.48438 -7.66016,-0.36328 -11.1875,0.60937 -5.77734,1.58204 -11.85938,6.8125 -11.37109,13.19532 -8.15235,1.82422 -17.39454,2.49609 -24.38672,-2.49219 -3.58985,-2.55469 -6.69141,-7.60156 -4.6836,-12.04297 0.97266,-2.06641 3.28516,-4.37891 5.83594,-3.82812 2.19141,0.48437 2.92188,2.61328 2.61719,4.55859 -0.24219,1.51953 1.51953,2.25 2.49219,1.21875 2.67578,-2.61719 0.73046,-6.75391 -2.00782,-8.45313 -3.34375,-2.1289 -7.60156,-0.91406 -10.15625,1.82422 -4.55859,4.80469 -3.22265,10.64063 0.55078,14.89844 -5.23046,-2.25 -10.64453,-4.19531 -15.99609,-6.08203 -5.28906,-1.82422 -10.58203,-3.52734 -15.93359,-5.04688 0.18359,-0.36718 0.36718,-0.66796 0.48828,-0.97265 1.82422,-4.44141 0.91015,-9.30469 -2.3125,-12.83203 -5.71485,-6.32422 -15.50781,-5.41407 -20.25,1.51953 -1.39844,2.0664 -2.12891,4.19531 -2.3125,6.38672 -1.03125,-0.1836 -2.06641,-0.42578 -3.10156,-0.60938 0.30468,-3.10156 1.09375,-6.08203 1.27734,-9.18359 0.0625,-0.78906 -0.91016,-1.45703 -1.58203,-0.91016 -1.76172,1.57813 -2.3711,2.73438 -2.85547,5.23047 -0.24609,1.33594 -0.42578,2.79688 -0.36719,4.13281 -0.91015,-0.17968 -1.76172,-0.30468 -2.67578,-0.48437 0,-0.2461 -0.0586,-0.48828 -0.0586,-0.79297 -0.1836,-2.25 0.12109,-4.25391 -1.03516,-6.32422 -0.24219,-0.42578 -0.91406,-0.54687 -1.15625,-0.0586 -1.15625,1.94531 -1.03125,4.3164 -0.24219,6.6875 -1.09375,-0.1836 -2.25,-0.36328 -3.34375,-0.54688 -2.67578,-3.52734 -6.6914,-6.26562 -10.88672,-7.05469 -0.91406,-0.18359 -1.82421,0.30469 -2.0664,1.21485 -0.125,0.36719 -0.0625,0.55078 0,0.91406 0.17969,0.73047 0.97265,1.21484 1.70312,1.21484 3.03907,-0.17968 5.16797,-0.12109 7.84375,1.58204 0.91016,0.54687 1.70313,1.21484 2.4336,1.94531 -22.92969,-3.40625 -46.46485,-4.13281 -69.02735,-0.60547 -0.97265,0.17969 -2.0039,0.30078 -3.03906,0.54687 -7.05469,0.85157 -14.10937,2.49219 -20.43359,5.71485 -3.64844,1.88672 -7.11719,4.19531 -10.03516,7.05469 -2.67578,2.61718 -5.83594,5.71875 -6.80859,9.42578 -0.0625,0.12109 -0.125,0.24609 -0.125,0.36718 -0.0586,0.17969 -0.0586,0.36329 -0.1211,0.54688 -0.73047,1.76172 2.25,3.22266 3.10157,1.33594 1.82421,-3.95313 2.67578,-7.90625 5.65625,-11.3086 2.79687,-3.16406 6.20312,-5.59765 9.97265,-7.35937 3.46875,-1.64453 7.05469,-2.73828 10.76563,-3.58985 -8.14844,2.98047 -15.32422,8.45313 -13.86719,18.1836 0.79297,5.04687 4.5625,8.69531 9.67187,9.0625 4.80469,0.36328 8.57422,-1.94531 9.36329,-6.8125 0.18359,-1.21485 -1.64063,-1.70313 -2.06641,-0.54688 -1.70313,4.80469 -9.85156,4.86719 -12.34375,0.73047 -3.89453,-6.44531 1.64062,-14.04687 7.17578,-17.08984 5.95703,-3.28516 13.19531,-4.31641 19.88672,-5.23047 7.47656,-1.03125 14.95703,-1.51953 22.5,-1.57813 13.74219,-0.125 27.54687,0.91016 41.23047,2.91797 0.79297,1.09375 1.39844,2.25 1.88672,3.46485 0.0586,0.0625 0.12109,0.0625 0.12109,-0.0586 -0.36328,-1.15625 -0.85156,-2.3125 -1.46094,-3.34765 0.1836,0 0.36719,0.0625 0.54688,0.0625 0.79297,0.12109 1.58203,0.24218 2.3125,0.36328 1.27734,2.92187 3.28515,5.77734 4.80469,7.60156 0,0 0.0625,0 0,0 -1.33985,-2.37109 -2.1875,-4.67969 -2.67579,-7.23437 0.85157,0.12109 1.70313,0.30468 2.61329,0.42578 0,0.17968 0.0625,0.36328 0.125,0.60547 0.91015,4.625 3.94921,8.69921 6.99218,12.16406 0,0 0.0586,0 0.0586,-0.0586 -3.28125,-3.40625 -3.94922,-7.54296 -3.76953,-12.10546 1.03515,0.18359 2.1289,0.42578 3.16406,0.60937 0.12109,6.14453 4.3164,12.22266 9.42578,15.75 9.60937,6.62891 22.80469,9.36719 34.23828,10.33984 11.25,0.97266 22.62109,-0.0625 33.44922,-3.28515 3.03906,-0.1211 6.07812,-0.60547 9,-1.21485 0.12109,0 0.24219,-0.0625 0.36328,-0.0625 0,0.0625 0.0625,0.1211 0.0625,0.2461 0.72656,2.79687 2.79688,5.22656 5.35156,6.5664 2.12891,1.09375 5.23047,1.88672 6.6875,-0.54687 0.2461,-0.42578 0.2461,-1.03516 -0.17968,-1.27734 -2.12891,-1.33985 -4.5625,-0.78907 -6.50782,-2.73829 -0.91406,-0.91015 -1.52343,-2.0039 -1.76562,-3.16015 4.92578,-1.33985 9.73047,-3.04297 14.65625,-4.25781 0.66797,4.3789 4.13672,8.33203 8.75781,8.51562 2.49219,0.12109 5.16797,-0.91406 6.08203,-3.40625 0.66797,-1.70312 0.30469,-3.64844 -1.21484,-4.68359 -0.125,-0.1211 -0.30469,0.12109 -0.1836,0.24218 2.12891,3.71094 -0.48828,7.35938 -4.68359,7.11719 -2.67578,-0.12109 -5.04687,-1.88672 -6.50781,-4.07422 -0.78906,-1.21875 -1.27735,-2.61718 -1.39844,-3.95312 4.01563,-0.97266 8.08984,-1.64453 12.28516,-1.51953 3.71093,0.12109 7.53906,0.78906 10.94531,2.30859 2.61719,2.00781 5.10937,4.19531 7.54297,6.50781 h 0.0586 c 0.54688,0.91016 0.91406,1.94532 1.09766,2.98047 0.66797,3.89063 -2.61719,7.90625 -6.69141,6.62891 -0.24219,-0.0625 -0.30469,0.24219 -0.0586,0.36328 2.67578,0.97266 5.53125,-0.36328 7.05078,-2.73438 0.18359,-0.30468 0.36719,-0.67187 0.55078,-0.97265 0.12109,0.36328 0.30078,0.66797 0.54688,0.97265 1.51953,2.3711 4.3789,3.70704 7.05468,2.73438 0.17969,-0.0586 0.1211,-0.42578 -0.0625,-0.36328 -4.07422,1.27734 -7.35937,-2.73828 -6.6875,-6.62891 0.17969,-1.03515 0.54688,-2.07031 1.09375,-2.98047 h 0.0586 c 2.43359,-2.3125 4.92578,-4.5 7.54297,-6.50781 3.40625,-1.58203 7.17578,-2.25 10.94531,-2.30859 4.19531,-0.125 8.26953,0.54687 12.28515,1.51953 -0.12109,1.33594 -0.60937,2.67578 -1.39843,3.95312 -1.39844,2.1875 -3.83203,3.89063 -6.50782,4.07422 -4.19531,0.24219 -6.8125,-3.40625 -4.68359,-7.11719 0.0625,-0.12109 -0.0586,-0.30468 -0.17969,-0.24218 -1.52343,1.09375 -1.88672,2.98047 -1.21875,4.68359 0.91407,2.43359 3.64844,3.52734 6.08203,3.40625 4.6211,-0.24609 8.08985,-4.13672 8.75782,-8.51562 4.92578,1.27734 9.78906,2.91796 14.65625,4.25781 -0.30469,1.15625 -0.85157,2.1875 -1.76563,3.16015 -1.94531,1.94922 -4.3789,1.39844 -6.5039,2.73829 -0.42579,0.30468 -0.42579,0.85156 -0.1836,1.27734 1.46094,2.43359 4.5625,1.64062 6.6875,0.54687 2.55469,-1.33984 4.625,-3.76953 5.35156,-6.5664 0,-0.0625 0.0625,-0.125 0.0625,-0.2461 0.1211,0 0.24219,0.0625 0.36329,0.0625 2.92187,0.66797 5.96093,1.09375 9.0039,1.21485 10.82422,3.28515 22.19531,4.25781 33.44531,3.28515 11.4336,-0.97265 24.62891,-3.71093 34.23829,-10.33984 5.10937,-3.52734 9.30468,-9.60547 9.42578,-15.75 1.03515,-0.18359 2.07031,-0.42578 3.16406,-0.60937 0.18359,4.5625 -0.48828,8.69921 -3.76953,12.10546 0,0 0,0.0586 0.0586,0.0586 3.04297,-3.46485 6.08203,-7.53906 6.9961,-12.16406 0.0586,-0.17969 0.0586,-0.36329 0.12109,-0.60547 0.85156,-0.1211 1.70312,-0.30469 2.61328,-0.42578 -0.48437,2.55468 -1.33594,4.92578 -2.67578,7.23437 0,0 0,0.0625 0,0 1.46094,-1.82422 3.52734,-4.67969 4.80469,-7.60156 0.78906,-0.1211 1.58203,-0.24219 2.3125,-0.36328 0.17968,0 0.36328,-0.0625 0.54687,-0.0625 -0.60937,1.09765 -1.15625,2.1914 -1.46094,3.34765 0,0.0586 0.1211,0.1211 0.1211,0.0586 0.48828,-1.21485 1.15625,-2.4336 1.88672,-3.46485 13.62109,-1.94531 27.42578,-3.04297 41.23047,-2.91797 7.54296,0.0586 15.08203,0.60547 22.5039,1.57813 6.6875,0.91406 13.92578,1.88672 19.88281,5.23047 5.53516,3.04297 11.07032,10.64453 7.17969,17.08984 -2.49609,4.13672 -10.64453,4.07422 -12.34765,-0.73047 -0.42579,-1.15625 -2.25,-0.60937 -2.06641,0.54688 0.73047,4.86719 4.55859,7.17578 9.36328,6.8125 5.10938,-0.36719 8.87891,-4.01563 9.67188,-9.0625 1.45703,-9.78906 -5.71875,-15.20313 -13.86719,-18.1836 3.64844,0.85157 7.29687,1.94532 10.76562,3.58985 3.76953,1.76172 7.17578,4.19531 9.97266,7.35937 2.98047,3.40235 3.76953,7.35547 5.65625,11.3086 0.85156,1.88672 3.83203,0.36718 3.10156,-1.33594 -0.66797,-0.18359 -0.66797,-0.36719 -0.73047,-0.54688 z M 297.48437,667.26172 c 5.65625,-0.78906 11.73829,3.71094 11.85938,9.60937 0,2.1875 -0.85156,4.31641 -2.25,6.01953 -2.25,-0.60937 -4.5625,-1.21484 -6.8125,-1.76171 -4.31641,-1.09766 -8.69531,-2.07032 -13.07422,-2.98047 0.48438,-5.35157 4.80469,-10.09766 10.27734,-10.88672 z m 33.50782,36.91406 c -11.4336,-0.91016 -24.62891,-3.22266 -34.42188,-9.66797 -5.04687,-3.28515 -9.30469,-8.63672 -9.42578,-14.90234 6.38672,1.27734 12.71094,2.73828 19.03516,4.4414 -1.82422,1.76172 -4.19532,2.06641 -6.01953,3.71094 -0.42579,0.36328 -0.54688,1.21485 0.0586,1.51953 3.46875,2.06641 7.54297,-0.97265 9.79297,-4.19531 1.46094,0.42578 2.85937,0.78906 4.3164,1.21484 10.39844,3.10157 20.375,7.05469 30.46875,10.88672 0.48829,0.42578 1.03516,0.78907 1.64063,1.15235 4.44141,2.85937 9.60937,3.89453 14.78125,3.95312 -10.03516,1.88672 -20.13281,2.67578 -30.22656,1.88672 z m 59.71875,-11.00781 c -0.0586,0.36719 -0.0586,0.66797 -0.0586,1.03515 -4.625,1.15625 -9.18359,2.67579 -13.80468,3.95313 -0.30469,0.12109 -0.67188,0.17969 -0.97266,0.24219 -0.0625,-1.03516 0.12109,-2.06641 0.42578,-3.16407 2.125,-7.29687 10.33594,-8.69531 16.90625,-8.08593 -1.33984,1.70312 -2.25,3.71093 -2.49609,6.01953 z m 12.83203,-0.73047 c -4.07422,-0.0586 -8.02735,0.54687 -11.91797,1.46094 0.17969,-2.3711 1.21484,-4.74219 2.98047,-6.56641 5.89844,0.78906 11.1289,2.91797 15.93359,5.89844 -2.375,-0.48828 -4.74609,-0.73047 -6.99609,-0.79297 z m 12.77344,2.92187 c -5.41407,-4.80468 -12.65235,-8.33203 -19.88672,-9.60937 5.41015,-4.01563 12.34375,-2.3125 17.39062,1.70312 3.10156,3.76954 5.83985,7.84375 8.21094,12.16016 -1.64063,-1.76172 -3.58984,-3.16016 -5.71484,-4.25391 z m 8.9375,6.32422 c -0.36329,0.60547 -0.66797,1.27735 -0.91016,2.00391 -0.24609,-0.66797 -0.55078,-1.39844 -0.91406,-2.00391 -1.76172,-3.71093 -3.83203,-7.29687 -6.14063,-10.64453 0.30078,0.42578 0.60547,0.85156 0.91016,1.27735 0,0.0625 0.0625,0 0.0625,-0.0586 -0.85156,-1.52344 -1.94531,-2.92187 -3.16406,-4.19922 -6.56641,-8.45312 -14.89844,-15.44531 -24.44532,-20.43359 1.03125,-1.09375 2.3711,-1.94531 3.89063,-2.30859 6.14062,-1.70313 11.61719,2.43359 15.57031,6.6289 7.84375,8.39063 12.58594,19.39844 13.86328,30.76953 0,0.1836 0.30469,0.1836 0.36719,0.0625 0,0.1836 0.30078,0.1836 0.36328,-0.0625 1.33594,-11.37109 6.08203,-22.3789 13.86719,-30.76953 3.95312,-4.25781 9.42578,-8.33203 15.5664,-6.6289 1.51954,0.42578 2.91797,1.21484 3.89063,2.30859 -9.54688,4.98828 -17.87891,11.98047 -24.44531,20.43359 -1.21485,1.27735 -2.25,2.67578 -3.16407,4.19922 0,0.0586 0,0.0586 0.0625,0.0586 0.30469,-0.42579 0.60938,-0.85157 0.91407,-1.27735 -2.3125,3.34766 -4.37891,6.9336 -6.14453,10.64453 z m 7.11718,-6.32422 c -2.1289,1.09375 -4.07422,2.49219 -5.65625,4.31641 2.3086,-4.31641 5.04688,-8.39062 8.20703,-12.16406 5.05079,-4.01172 11.92188,-5.71485 17.39454,-1.70313 -7.23829,1.21875 -14.47266,4.7461 -19.94532,9.55078 z m 12.76953,-2.92187 c -2.25,0.0625 -4.62109,0.30469 -6.93359,0.85156 4.80469,-2.98047 10.03516,-5.10547 15.93359,-5.89844 1.70313,1.82422 2.79688,4.19532 2.98047,6.57032 -3.95312,-0.97657 -7.90625,-1.58203 -11.98047,-1.52344 z m 26.69922,5.71875 c -4.5625,-1.27734 -9.125,-2.79688 -13.80859,-3.95313 0,-0.36718 0,-0.66796 -0.0586,-1.03515 -0.24219,-2.25 -1.15625,-4.31641 -2.49219,-5.96094 6.5664,-0.66797 14.77734,0.79297 16.90625,8.08984 0.30078,1.03516 0.48437,2.12891 0.42578,3.16407 -0.36719,-0.125 -0.67188,-0.2461 -0.97266,-0.30469 z m 79.42188,-30.89453 c 5.41406,0.78906 9.78906,5.53515 10.33984,10.88672 -4.3789,0.91015 -8.75781,1.88281 -13.07812,2.98047 -2.3086,0.54687 -4.5586,1.15234 -6.8086,1.76171 -1.39843,-1.70312 -2.25,-3.83203 -2.25,-6.01953 0,-5.89843 6.14063,-10.39843 11.79688,-9.60937 z m 0.91015,27.18359 c -9.78906,6.44531 -22.98437,8.75781 -34.41796,9.66797 -10.09766,0.79297 -20.19141,0 -30.10547,-1.94531 5.23047,-0.0586 10.33984,-1.09375 14.77734,-3.95313 0.55078,-0.36328 1.09766,-0.72656 1.64453,-1.15234 10.09375,-3.83203 20.06641,-7.78516 30.46875,-10.88672 1.39844,-0.42578 2.85547,-0.85156 4.31641,-1.21875 2.1875,3.22656 6.32422,6.32813 9.78906,4.19922 0.55078,-0.36719 0.48828,-1.15625 0.0625,-1.52344 -1.82422,-1.57812 -4.19531,-1.94531 -6.01953,-3.70703 6.26172,-1.70312 12.64844,-3.16406 19.03516,-4.44141 -0.2461,6.32422 -4.5,11.67579 -9.55079,14.96094 z m 0,0"
       fill-opacity="1"
       fill-rule="nonzero"
       id="path489"
       style="display:inline" />
  </g>
</svg>
